<?xml version="1.0" encoding="UTF-8"?>
<svg width="18px" height="57px" viewBox="0 0 18 57" version="1.1" xmlns="http://www.w3.org/2000/svg" xmlns:xlink="http://www.w3.org/1999/xlink">
    <title>0A9FF8DB-0781-477B-940C-2116AB759B38</title>
    <g id="Page-1" stroke="none" stroke-width="1" fill="none" fill-rule="evenodd" stroke-linecap="round" stroke-linejoin="round">
        <g id="home4" transform="translate(-506.000000, -7356.000000)" stroke="#32373B" stroke-width="2">
            <g id="footer" transform="translate(41.052942, 7202.000000)">
                <g id="Group-18" transform="translate(465.000000, 155.000000)">
                    <g id="headline-accent-community1" transform="translate(0.908890, 0.674858)">
                        <line x1="12.2499228" y1="54.011656" x2="15.7789092" y2="50.3217465" id="Path-5-Copy" transform="translate(14.014416, 52.166701) scale(-1, 1) rotate(-270.000000) translate(-14.014416, -52.166701) "></line>
                        <line x1="4.90930739" y1="42.5110461" x2="6.92517607" y2="37.7038377" id="Path-6-Copy" transform="translate(5.917242, 40.107442) scale(-1, 1) rotate(-270.000000) translate(-5.917242, -40.107442) "></line>
                        <line x1="15.7789092" y1="3.68990951" x2="12.2499228" y2="0" id="Path-5-Copy-2" transform="translate(14.014416, 1.844955) scale(-1, 1) rotate(-270.000000) translate(-14.014416, -1.844955) "></line>
                        <line x1="6.92517607" y1="16.3078183" x2="4.90930739" y2="11.5006099" id="Path-6-Copy-2" transform="translate(5.917242, 13.904214) scale(-1, 1) rotate(-270.000000) translate(-5.917242, -13.904214) "></line>
                        <line x1="3.97756124" y1="24.3000746" x2="3.97756124" y2="30.4714842" id="Path-11" transform="translate(3.977561, 27.385779) scale(-1, 1) rotate(-270.000000) translate(-3.977561, -27.385779) "></line>
                    </g>
                </g>
            </g>
        </g>
    </g>
</svg>