<svg xmlns="http://www.w3.org/2000/svg" width="36.124" height="30.396" viewBox="0 0 36.124 30.396">
  <path fill="rgb(177,218,224)" fill-rule="evenodd" d="M16.13304138 23.38134766c0 3.85791015-3.2733612 7.01416015-7.59889221 7.01416015C3.97480774 30.39550781 0 27.12207031 0 20.4584961 0 6.66357422 9.00177002.70166016 15.54852295 0v5.4946289c-5.14387512 1.16894532-8.65106201 6.546875-8.7679596 11.33984376C7.13127136 16.60058594 7.94961548 16.25 9.11868286 16.25c3.8578949 0 7.01435852 2.68896484 7.01435852 7.13134766zm19.9909668 0c0 3.85791015-3.27337647 7.01416015-7.59890747 7.01416015-4.55934143 0-8.53414917-3.2734375-8.53414917-9.93701172C19.99095154 6.66357422 28.99272156.70166016 35.53947449 0v5.4946289c-5.14387512 1.16894532-8.65106201 6.546875-8.7679596 11.33984376C27.1222229 16.60058594 27.94056702 16.25 29.1096344 16.25c3.8578949 0 7.01437379 2.68896484 7.01437379 7.13134766z"/>
</svg>
